<svg xmlns="http://www.w3.org/2000/svg" viewBox="0 0 500 500"><g id="freepik--Floor--inject-62"><path id="freepik--floor--inject-62" d="M135.9,320.44c-65.9,38.05-65.9,99.74,0,137.8s172.77,38.05,238.67,0,65.91-99.75,0-137.8S201.81,282.39,135.9,320.44Z" style="fill:#f5f5f5"></path></g><g id="freepik--Shadow--inject-62"><ellipse id="freepik--shadow--inject-62" cx="257.38" cy="411.1" rx="84.86" ry="48.99" style="fill:#e0e0e0"></ellipse></g><g id="freepik--Clouds--inject-62"><path id="freepik--Cloud--inject-62" d="M376.47,80c0-4.28-4.7-7.26-10-7.76-6.26-.59-10.7,2.2-10.85,7.13-4.09-1.68-8.41-.6-8.08,3.9-1.07-1.23-5-1.19-6.48-.85a5.62,5.62,0,0,0-3.57,3,4.18,4.18,0,0,0-.37,2.3c-2.39-.78-7.81-1.26-9.17.93-2.41,3.9,7.24,4,9.18,2.84.42,3,10.79,3.53,13.3.73,2,2,4.78,2.42,7.82,2.6,5.13.3,8.28-1.44,12.28-3.48,4.36,3.69,11.89,3.76,15.81-.47,1,1,3.75,1.24,6,.71,1.45-.34,1.79-1,1.79-1a12.39,12.39,0,0,0,2.66.8c2.84.6,8.14,0,5.92-2.6-.76-.87-3.53-1.42-4.7-1.15-1.24-2.44-6.23-4.76-9.08-2.69-.12-3-2.82-5.27-6.62-5.86C381,78.94,377.92,78.77,376.47,80Z" style="fill:#f5f5f5"></path><path id="freepik--cloud--inject-62" d="M429.41,129.05c.06-5.57-6-9.52-12.89-10.27-8.13-.88-14,2.68-14.24,9.09-5.3-2.26-10.93-.93-10.59,4.93-1.36-1.61-6.55-1.64-8.42-1.22a7.32,7.32,0,0,0-4.69,3.9,5.38,5.38,0,0,0-.52,3c-3.09-1.06-10.15-1.78-11.95,1.05-3.21,5,9.35,5.35,11.9,3.85.48,4,14,4.78,17.29,1.19,2.52,2.6,6.18,3.22,10.14,3.51,6.67.49,10.54,0,15.78-2.62,3.17,2.75,7.09,3.45,11.12,3.5,6.49.09,10.17-3.49,9.9-3.67a11.65,11.65,0,0,0,12.7-.1,1.87,1.87,0,0,1,.85-.41,1.76,1.76,0,0,1,.74.16,12.53,12.53,0,0,0,4.38.7c1.25,0,3.65-.55,3.95-2.08.27-1.33-1.58-2.6-2.52-3.2a7.9,7.9,0,0,0-5.09-.89c-1.57-3.2-8-6.3-11.77-3.66-.1-3.85-3.57-6.91-8.52-7.74C435.31,127.78,431.33,127.5,429.41,129.05Z" style="fill:#f5f5f5"></path><path id="freepik--cloud--inject-62" d="M100.93,111.4c0-5.15-5.65-8.73-12-9.34-7.54-.71-12.89,2.65-13.07,8.59-4.92-2-10.12-.73-9.73,4.69-1.28-1.48-6.08-1.44-7.8-1A6.77,6.77,0,0,0,54,118a5,5,0,0,0-.45,2.78c-2.87-1-9.4-1.52-11,1.11-2.91,4.7,8.71,4.84,11.06,3.42.49,3.65,13,4.25,16,.89,2.37,2.37,5.76,2.9,9.42,3.12a25.57,25.57,0,0,0,14.79-3.07c5.24,4.45,14.3,5.08,19,0,1.2,1.14,4.18,1.75,6.83,1.11a11.23,11.23,0,0,0,3.57-1.82,13.14,13.14,0,0,0,4.2.88c4.58,0,8.3-2.21,5.06-4.32-1.17-.75-4.25-1.71-5.66-1.39-1.5-2.94-7.5-5.72-10.94-3.24-.13-3.56-3.39-6.34-8-7C106.37,110.15,102.68,110,100.93,111.4Z" style="fill:#f5f5f5"></path></g><g id="freepik--Character--inject-62"><g id="freepik--character--inject-62"><path d="M183.2,333.68c19.16-22.42,77.91-30.39,121.13-7.77,0,0-13.65-40.54-16.5-76.21s-3.8-80.3-3.8-80.3L221.27,165Z" style="fill:#263238"></path><g id="freepik--Bottom--inject-62"><g id="freepik--Legs--inject-62"><path d="M301.21,379.65c-3.37-8.52-8.79-20.25-8.79-20.25a10.24,10.24,0,0,1-2.32-1.25c-2.39-1.88-8.58-24.56-13-35.77-7-17.9-15.17-28.08-21.12-34.48,2.81-13.39,8.58-41.22,8.58-41.22l-8.05-15.13s-26.35-14.17-32.83-24.87c0,0-5,27.18-6.24,47.13-2.26,35.12,2.2,40.1,8.44,50,3,4.72,15.53,22.36,25.3,34.46,8.66,11.58,11.13,15.23,15.52,21.08a159.45,159.45,0,0,1,9,13.2c2.8,4.9,4.62,12.62,5.62,16.67a38,38,0,0,1,.86,12.18s-1.43,8.9.09,8.69,14.49-7.12,18.31-11.79S304.58,388.17,301.21,379.65Z" style="fill:#ffa8a7"></path><path d="M301.93,366.3c1,1.88,1,4.85,2.41,7.91a58.52,58.52,0,0,0,5.65,9.94l3.06,4.38-1.19.82s-3.87-5.53-5.56-8-3.5-3.89-4.84-3.34C301.46,378.05,296.19,370.32,301.93,366.3Z" style="fill:#407BFF"></path><path d="M301.93,366.3c1,1.88,1,4.85,2.41,7.91a58.52,58.52,0,0,0,5.65,9.94l3.06,4.38-1.19.82s-3.87-5.53-5.56-8-3.5-3.89-4.84-3.34C301.46,378.05,296.19,370.32,301.93,366.3Z" style="opacity:0.30000000000000004"></path><path d="M291.07,358.47c2.15,1.52,5.51,2.22,8.58,4.68a8,8,0,0,1,2.63,4.06c-.26,1.63-.64,2.4-.88,3.57a12.12,12.12,0,0,0-.28,5.79c.57,2.9,2.85,8.18,4.27,11.93s-.56,6.64-2.26,10.13c-1.32,2.71-7,8.63-11.36,12-5.88,4.53-11.26,4-11.4,0-.12-3.39,1.63-10.8,2-11.78a13.73,13.73,0,0,1,5.77-2.32c4.44-.84,7.58.82,10-3.42,2.17-3.85,3.56-11.92-2.6-20.44C288.53,363,291.07,358.47,291.07,358.47Z" style="fill:#407BFF"></path><path d="M264.3,298a39.34,39.34,0,0,1-3.26-3.23c.08-.25.17-.51.25-.79-1.87-2.36-3.65-4.39-5.26-6.12,2.3-10.93,6.56-31.5,8.05-38.67l-7.52-17.68h0s-17.32-9.32-27.33-18.54c.2,3,.57,6.33,1.09,9.41a3.49,3.49,0,0,0-4,3.37c-1.7,12.24,10.62,24.68,10.62,24.68s-1.14,6.66-3.57,20.12a230.76,230.76,0,0,0-3.4,39.13c5.26,7.54,14.05,19.58,21.31,28.56,8.66,11.58,11.13,15.23,15.52,21.08l.15.2c4.87-20.38,4.63-28.51,1.29-40.06a75.91,75.91,0,0,0,3.89-8.48A102.58,102.58,0,0,0,264.3,298Z" style="fill:#f28f8f"></path><path d="M233.47,416.27c1.37-3.94,4.07-11.4,4.4-17,.17-2.94.1-9.77-.3-16-.59-8.86-.57-13.43-2.22-36.89-2.44-34.83-3.27-39.78-1.23-55.55s5.16-39.92,5.16-39.92-5.21-5.44-10.75-19c-2.77-6.76-5.71-20-4.8-25.22,0,0,6.83,5.78,25.91,5.26,19.5-.53,27.21-3.89,27.21-3.89,1.11,2.84,4.9,8.44,7.93,14.3,2.17,4.19,5.49,11.17,3.49,24.9-1.4,9.64-5.94,15.84-10.43,31.87s-13.24,39.75-13.24,39.75c1.91,12.41,3.59,19.85-1.07,42.08-2.47,11.77-6.72,31.19-5.74,34.07a9.92,9.92,0,0,0,1.25,2.32s-1.86,12.78-3.69,21.76-5,13.46-10.71,15.29-20.4.54-21.78-.12,4.68-7.33,4.68-7.33A38.36,38.36,0,0,0,233.47,416.27Z" style="fill:#ffa8a7"></path><path d="M263.24,408.31c-.2,2.12-1.78,4.63-2.3,7.94a57.74,57.74,0,0,0-.7,11.42c.15,4.67.17,5.33.17,5.33L259,433s-.21-6.74-.31-9.7-.8-5.17-2.22-5.44C256.43,417.9,256.24,408.54,263.24,408.31Z" style="fill:#407BFF"></path><path d="M263.24,408.31c-.2,2.12-1.78,4.63-2.3,7.94a57.74,57.74,0,0,0-.7,11.42c.15,4.67.17,5.33.17,5.33L259,433s-.21-6.74-.31-9.7-.8-5.17-2.22-5.44C256.43,417.9,256.24,408.54,263.24,408.31Z" style="opacity:0.30000000000000004"></path><path d="M258.42,395.82c1,2.45,3.4,4.87,4.64,8.6a8,8,0,0,1,0,4.84c-1.11,1.23-1.86,1.66-2.69,2.51a12.12,12.12,0,0,0-3.4,4.7c-1.11,2.74-2.08,8.41-2.94,12.33s-4.1,5.25-7.42,7.24c-2.6,1.55-10.62,3.39-16.05,3.81-7.41.59-11.62-2.79-9.57-6.2,1.75-2.9,7.26-8.15,8.11-8.78a13.67,13.67,0,0,1,6.09,1.21c4.18,1.72,5.9,4.83,10.23,2.58,3.92-2,9.49-8,9-18.53C253.83,398.21,258.42,395.82,258.42,395.82Z" style="fill:#407BFF"></path></g></g><g id="freepik--Top--inject-62"><path d="M178.87,147.43c-2.07-9.91-.61-24.56,3.46-33.15,5.55-11.69,12.85-17.35,20-8.82s3.18,34.75-.62,40.92S181.27,157.77,178.87,147.43Z" style="fill:#263238"></path><g id="freepik--Arm--inject-62"><path d="M161.56,67.38a80.31,80.31,0,0,0-1,9.82s6.93,4,8.92,5,4.54,4.16,6.83,11.32c2,6.34,7.38,23.92,9.87,31.86,2,6.43,2.7,7.4,12.2,16.44,7.56,7.19,24.16,20.54,26.52,26.38,16.3-9.22,15.47-28.11,15.47-28.11-4-.92-9.87-5.55-15.69-10-5.58-4.25-16.86-14-16.86-14S188.54,79.29,186.08,74a9.48,9.48,0,0,0-2.81-3.69,34.6,34.6,0,0,1-4-4,15.51,15.51,0,0,0-3.17-2.78,5.39,5.39,0,0,0-2.62-.83,9.81,9.81,0,0,0-1.53.17c-1.66.25-3.34.33-5,.59a13,13,0,0,0-3.76,1.12,1.5,1.5,0,0,0-1,.89A11.91,11.91,0,0,0,161.56,67.38Z" style="fill:#ffa8a7"></path><path d="M171.39,73.51a8.15,8.15,0,0,1,4.76,4.18c-1-2.76-1.68-3.58-4.44-5.12Z" style="fill:#f28f8f"></path><path d="M171,83.31a11.9,11.9,0,0,1,1.58,1.89,3.92,3.92,0,0,0,2-.37c1.36-.65,2.4-3,2.4-3a9.72,9.72,0,0,1-2.38,1.7A3.71,3.71,0,0,1,171,83.31Z" style="fill:#f28f8f"></path><path d="M161.31,59.35a2.55,2.55,0,0,0-1.15,1c-.06.18-.09.38-.14.57-.41,1.61-.88,3.2-1.37,4.79a19.77,19.77,0,0,1-1.49,4,4,4,0,0,1-2.29,1.75,13,13,0,0,0,2.39,3.29,28.23,28.23,0,0,0,3.34,2.36A53.91,53.91,0,0,0,163,70.68a31.28,31.28,0,0,0,1.22-5.81c.19-1.85.27-4.36-1.62-5.41a1.55,1.55,0,0,0-.86-.21A1.34,1.34,0,0,0,161.31,59.35Z" style="fill:#ffa8a7"></path><path d="M162.2,53.35c-.11,1.51.62,2.76,1.53,4.89.43,1,.74,1.75,1,2.34l3.1-.59C166.75,57.58,165,55.74,162.2,53.35Z" style="fill:#f28f8f"></path><g id="freepik--Diploma--inject-62"><path d="M144.91,94.65l16.64-28.46,2.11-4.09,15-32.56.25-.53c.59-1.14,1.92-1.88,3.87-2a13.51,13.51,0,0,1,10.87,5.63c1.06,1.65,1.22,3.17.63,4.3L176.07,68.53,174,72.6l-13.77,30.17,0,0c-.6,1.11-1.93,1.85-3.85,1.93a13.61,13.61,0,0,1-10.88-5.63c-1.05-1.65-1.2-3.18-.62-4.31l.09-.16Z" style="fill:#407BFF"></path><path d="M144.91,94.65l16.64-28.46,2.11-4.09,15-32.56.25-.53c.59-1.14,1.92-1.88,3.87-2a13.51,13.51,0,0,1,10.87,5.63c1.06,1.65,1.22,3.17.63,4.3L176.07,68.53,174,72.6l-13.77,30.17,0,0c-.6,1.11-1.93,1.85-3.85,1.93a13.61,13.61,0,0,1-10.88-5.63c-1.05-1.65-1.2-3.18-.62-4.31l.09-.16Z" style="fill:#fff;opacity:0.4"></path><path d="M179.57,28.18a2.88,2.88,0,0,0-.65.83l-.25.53-15,32.56-2.11,4.09L144.91,94.65h0l-.09.16c-.58,1.13-.43,2.66.62,4.31a13.56,13.56,0,0,0,7.08,5.07L185.9,39.76S178.83,34.69,179.57,28.18Z" style="opacity:0.1"></path><path d="M182.79,27c-1.95.09-3.29.83-3.88,2s-.42,2.66.63,4.3A13.52,13.52,0,0,0,190.41,39c2-.09,3.29-.84,3.88-2s.43-2.66-.63-4.31A13.51,13.51,0,0,0,182.79,27Z" style="fill:#407BFF"></path><path d="M144.63,95.15l.27-.51h0l16.64-28.46,2.11-4.09,15-32.56c-2.1,5.21,4.44,10.19,4.44,10.19l-34.29,66.14S141.84,100.54,144.63,95.15Z" style="fill:#407BFF"></path><path d="M144.63,95.15l.27-.51h0l16.64-28.46,2.11-4.09,15-32.56c-2.1,5.21,4.44,10.19,4.44,10.19l-34.29,66.14S141.84,100.54,144.63,95.15Z" style="fill:#fff;opacity:0.6000000000000001"></path><path d="M182.79,27c-1.95.09-3.29.83-3.88,2s-.42,2.66.63,4.3A13.52,13.52,0,0,0,190.41,39c2-.09,3.29-.84,3.88-2s.43-2.66-.63-4.31A13.51,13.51,0,0,0,182.79,27Z" style="fill:#fff;opacity:0.25"></path><path d="M188.42,34.1c4.18-.45,1.58-5-3.33-6.88h0a9.55,9.55,0,0,0-2.3-.18c-1.95.09-3.29.83-3.88,2s-.42,2.66.63,4.3a13.35,13.35,0,0,0,6.72,5Z" style="fill:#407BFF;opacity:0.5"></path><path d="M190.33,33.15l-2.84,5.49a10.26,10.26,0,0,1-1.23-.37l2.16-4.17A2.56,2.56,0,0,0,190.33,33.15Z" style="fill:#407BFF"></path><path d="M190.33,33.15l-2.84,5.49a10.26,10.26,0,0,1-1.23-.37l2.16-4.17A2.56,2.56,0,0,0,190.33,33.15Z" style="opacity:0.1"></path><path d="M162,67.91c-3.05,5-8.05,8.35-14.23,10.79a14.27,14.27,0,0,0,5.17.46,16.07,16.07,0,0,1-1.9,3.85c5.77-2.63,10.64-6.08,14.17-10.75l-.7-1Z" style="fill:#407BFF"></path><path d="M160.5,70.06l1.56,1.06L163.77,74c.51-.57,1-1.15,1.46-1.77l-.7-1L162,67.91A19.33,19.33,0,0,1,160.5,70.06Z" style="opacity:0.2"></path><path d="M161.55,66.19a3.49,3.49,0,0,0,.51,3.45,10.93,10.93,0,0,0,8.78,4.55,3.5,3.5,0,0,0,3.1-1.55l0,0,2.11-4.07A3.49,3.49,0,0,1,173,70.12a10.93,10.93,0,0,1-8.78-4.55,3.45,3.45,0,0,1-.5-3.47l-2.11,4.07Z" style="fill:#407BFF"></path><path d="M167.11,68.37a10.1,10.1,0,0,1-2.31-2l-2.11,4.07a10.1,10.1,0,0,0,2.31,2Zm-5.05,1.27,0,0,2.11-4.07,0,0a5.44,5.44,0,0,1-.62-1.33l-2.11,4.07A5.44,5.44,0,0,0,162.06,69.64Z" style="fill:#fff;opacity:0.15"></path><path d="M168.46,73.93a8.6,8.6,0,0,0,2.38.26,3.5,3.5,0,0,0,3.1-1.55l0,0,2.11-4.07A3.49,3.49,0,0,1,173,70.12a8.6,8.6,0,0,1-2.38-.26Z" style="opacity:0.1"></path></g><path d="M167.73,63.54A18.58,18.58,0,0,0,166,60.17a4.77,4.77,0,0,0-1.1-1c-.37-.26-.69-.6-1-.85a10.76,10.76,0,0,0-3.1-1.31l-1.32,11.65v.06h0a3.79,3.79,0,0,0,1.72,3.32,7.93,7.93,0,0,0,.79.56l-.07,0a2,2,0,0,1-1.55.51c-.84-.06-2.38-1.22-3.74-1,.91,0,2.66,1.06,3.52,1.44a2.38,2.38,0,0,0,2.86-.37,2.24,2.24,0,0,0,.29-1.89,2.62,2.62,0,0,0,3.29-1,3,3,0,0,0,.14-1.57c-.11-.61-.53-1.13-.6-1.76a5,5,0,0,0,2.14-1C168.9,65.31,168.08,64.28,167.73,63.54Z" style="opacity:0.2"></path><path d="M166.71,57.72a1.37,1.37,0,0,0,.67,0,1.91,1.91,0,0,0,1.12-1.12,4.63,4.63,0,0,0,.11-2.25,10.6,10.6,0,0,0-.45-1.95L166,57.13A1.19,1.19,0,0,0,166.71,57.72Z" style="opacity:0.2"></path><path d="M162.28,52.83c-.38,1.62.49,2.33,1.33,3.39s3,2.23,3.85,1.37.57-2.55-.54-4.34-1.91-2.48-2.58-2.38A3.15,3.15,0,0,0,162.28,52.83Z" style="fill:#ffa8a7"></path><path d="M165.4,68.54a1.68,1.68,0,0,1-1.47,1.56,2.86,2.86,0,0,1-1.69-.12c.2,1,.29,2.18-.68,2.88-1.26.92-2.79-.34-4-.65-.68-.17-1.24.19-1.87.11s-.94-1.2-1.11-1.77a4.35,4.35,0,0,1,0-2.6,7.69,7.69,0,0,0,.43-1.22,4.29,4.29,0,0,0-.1-1.28,2.72,2.72,0,0,1,.21-1.93c.3-.47.84-.76,1.06-1.27a2.67,2.67,0,0,0,.08-1.23,5.52,5.52,0,0,1,.41-2.64,3,3,0,0,1,1.95-1.72,4.11,4.11,0,0,1,1.71,0c1.45.24,3.39.53,4.41,1.67a18.39,18.39,0,0,1,2.19,4.11,1.79,1.79,0,0,1,.19,1.85,2.26,2.26,0,0,1-1.53,1.08,3.42,3.42,0,0,1-1.39-.14C164.81,66.55,165.53,67.36,165.4,68.54Z" style="fill:#ffa8a7"></path><path d="M174.16,55.69a.91.91,0,0,1,.11.16c.63,1,1,2.17,1.57,3.21A23.35,23.35,0,0,0,179,62.77a29.25,29.25,0,0,1,5.48,7.72c.16.34,1.49,3.37,1.58,3.36l-10.87,1.49a18.28,18.28,0,0,0-1-6.53c-.35-1.14-1.07-2.73-1.37-3.53a21.86,21.86,0,0,1-1.49-5.34,5.46,5.46,0,0,1,.76-3.6C172.51,55.63,173.49,54.88,174.16,55.69Z" style="fill:#ffa8a7"></path></g><path d="M243,140.09c-5.61-2.47-9.23-3.75-18.18-10.82s-14.18-12-14.43-13-1.22-3.8-2.8-3.81a6.86,6.86,0,0,0-5.24-7c1.8,3.53,1.67,8.35,1.72,10.07a79,79,0,0,1-.53,12.59c-.91,6.75-3.16,13.46-7.43,18.77a15.3,15.3,0,0,1-7.44,5.44,8,8,0,0,1-9.75-4.9c1.35,6.85,6.4,8.35,10.43,8.83,4.24.49,7.86.38,12.63,1a78.75,78.75,0,0,1,14.81,3.28c3.92,1.24,6.88,5.52,8.28,9.27,0,0,9.84-3.63,13.24-12.55A95.76,95.76,0,0,0,243,140.09Z" style="fill:#455a64"></path><path d="M207.89,114c0-.15-.18-.18-.19,0-.24,2.55-.24,5.12-.34,7.68s-.25,5.1-.57,7.63a41.7,41.7,0,0,1-3.55,12.67,37.93,37.93,0,0,1-3.79,6.29c-.07.09,0,.37.15.24A26.39,26.39,0,0,0,206,137.2a54.73,54.73,0,0,0,2.14-14.56A73.77,73.77,0,0,0,207.89,114Z" style="fill:#37474f"></path><path d="M211.19,121.26a14.67,14.67,0,0,0-.42-3c-.05-.18-.29-.23-.3,0-.07.93.11,1.9.13,2.83s0,2,0,3a43.63,43.63,0,0,1-.49,5.58,49,49,0,0,1-3,10.81c-.05.12.1.38.19.2a36.24,36.24,0,0,0,3.54-11.11,38.57,38.57,0,0,0,.42-5.68C211.29,123.05,211.27,122.16,211.19,121.26Z" style="fill:#37474f"></path><path d="M288.85,230.67c-2.38-9-6.3-13.84-10.5-24.44s1.72-19.83,3.94-28.08c0,0-5-1.75-7.61-13.06-1.18-5.13.6-13.32,4.17-17.84l-13.58-4.64s-5.08-.86-16.2-1.74l-9-.83s-13,11.48-20.66,21.11a18.21,18.21,0,0,0,2.37,24.26c1.09,9.43,1.82,16.7,1.82,16.7-7,22.07-8.59,47.6-10.15,79C222.33,297,235.92,302,254.11,304s24.63-6.07,24.63-6.07,3.15-12.37,6.44-26.85C288.73,255.41,291.85,242,288.85,230.67Z" style="fill:#407BFF"></path><path d="M241,190.67c7.79,6.8,22.8,5.21,26.59-4C267.41,199.78,247.28,201.9,241,190.67Z" style="opacity:0.2"></path><polygon points="266.7 67.49 298.7 105.05 264.42 116.62 230.75 84.33 266.7 67.49" style="fill:#263238"></polygon><g id="freepik--Head--inject-62"><path d="M276.43,141c3.72.43,7.41-1.93,9.24-5.2a15.78,15.78,0,0,0,1.23-10.93,32.58,32.58,0,0,0-2.31-6.7c-.71-1.56-2.5-3.93-2.26-5.71.54-4.07,7-11,5-14.61a28.81,28.81,0,0,0-7.29-8.3,37.14,37.14,0,0,0-18.84-8.21,43.91,43.91,0,0,0-5-.21,34.91,34.91,0,0,0-6.38.41c-2.82.52-3.75,3.56-4.54,5.92-.89,2.64-1.73,5.06-4.63,5.82a8,8,0,0,0-5.4,5.46,8.13,8.13,0,0,0,1.73,7.49,7.7,7.7,0,0,1,.38-3.92c-.28.75.64,2.33,1,2.92.53.79,1.36,1.31,1.88,2.08,1.27,1.88,0,3.93-1.8,4.83-.92.47-1.92.75-2.85,1.18a10.08,10.08,0,0,0-.85,17.9,6.83,6.83,0,0,1,.59-6.48,10.72,10.72,0,0,0,2.24,7.7c2.68,3.63,6.46,5.73,10.68,7s8.68,2.62,13,2.32a33,33,0,0,0,6.26-.55,32.4,32.4,0,0,0,5.85-2.17c1.69-.78,3.5-1.8,4.08-3.56A18.66,18.66,0,0,1,276.43,141Z" style="fill:#263238"></path><path d="M280.44,114.65c-3.09-1.79-5.25-.19-7.44,1.65-.81.68-2.48,1.3-3.34.32-.69-.81-.42-2.34-.26-3.26a6.36,6.36,0,0,0-1.16-5.45,12,12,0,0,1-2.56-5.16,10,10,0,0,0,1.46,6.78c-4.57-1.7-9-5.84-10.22-10.65a14.48,14.48,0,0,0,.77,6c-6.45-2.16-9.92-7.26-8.12-13.88a15.33,15.33,0,0,0-5.45,5.18,25.12,25.12,0,0,0-3.89,8.56c-.28,1.14-1.13,4.25-2.15,8.14-3,11.44.74,15.54,2.55,17.43s5.28,3.63,9.79,4.26l-1.2,6.35s-22.79,12.35-10.14,20.47c26,10.58,27.8-8.8,30.23-17.15l3.24-17.13c1,2.51,4.49,2.52,6.92.22C283.31,123.67,285,117.28,280.44,114.65Z" style="fill:#ffa8a7"></path><path d="M260.32,105l3.72,3a2.29,2.29,0,0,0-.27-3.32A2.52,2.52,0,0,0,260.32,105Z" style="fill:#263238"></path><polygon points="253.4 106.47 250.28 118.54 243.98 115.19 253.4 106.47" style="fill:#f28f8f"></polygon><path d="M250.42,134.53c7.61.76,13.58-.34,18.2-7,0,0-1.12,6.77-6.65,9.3-4.08,1.87-12.32,1.85-12.32,1.85Z" style="fill:#f28f8f"></path><path d="M256.62,115.71a3.77,3.77,0,1,0,4.42-3A3.77,3.77,0,0,0,256.62,115.71Z" style="fill:#f28f8f"></path><path d="M243.87,111.31a3.77,3.77,0,0,0-3-4.42,3.93,3.93,0,0,0-1.28,0c-.43,1.52-1,3.58-1.53,6l-.15.75a3.7,3.7,0,0,0,1.53.7A3.77,3.77,0,0,0,243.87,111.31Z" style="fill:#f28f8f"></path><path d="M257.26,111.44c-.4,1.12,1,.17,2.08.57s1.57,2,2,.88a2.15,2.15,0,0,0-4.05-1.45Z" style="fill:#263238"></path><path d="M262.46,112.64s0,0,0,.06a1.19,1.19,0,0,1-.44.45.8.8,0,0,1-.91-.08.66.66,0,0,1-.17-.29.38.38,0,0,1,0-.15.49.49,0,0,1,.06-.17c0-.08.12-.45.27-.41s.06,0,.09.08a1,1,0,0,0,.39.39.86.86,0,0,0,.61,0s.08,0,.11,0A.1.1,0,0,1,262.46,112.64Z" style="fill:#263238"></path><path d="M241.94,107.27c-.23,1.16,1,0,2.14.25s1.85,1.74,2.07.57a2.14,2.14,0,1,0-4.21-.82Z" style="fill:#263238"></path><path d="M241,106.4a.13.13,0,0,0,0,.06,1.08,1.08,0,0,0,.14.61.82.82,0,0,0,.83.4.66.66,0,0,0,.29-.17.27.27,0,0,0,.09-.12.51.51,0,0,0,0-.17c0-.1.13-.46,0-.49a.17.17,0,0,0-.12,0,.92.92,0,0,1-.54.13.82.82,0,0,1-.54-.28.09.09,0,0,0-.09,0S241,106.37,241,106.4Z" style="fill:#263238"></path><path d="M248.05,121.44a3.49,3.49,0,0,0,3.58,3.37,3.44,3.44,0,0,0,3.42-3.49Z" style="fill:#b16668"></path><path d="M254.89,122.43a3.46,3.46,0,0,1-3.26,2.38,3.58,3.58,0,0,1-1.22-.19A3.56,3.56,0,0,1,254.89,122.43Z" style="fill:#f28f8f"></path><path d="M243.54,101l4.73.2a2.31,2.31,0,0,0-2.21-2.46A2.43,2.43,0,0,0,243.54,101Z" style="fill:#263238"></path><path d="M259.33,105.51l4.34,2.63a2.39,2.39,0,0,0-.75-3.41A2.71,2.71,0,0,0,259.33,105.51Z" style="fill:#263238"></path></g><path d="M282.33,112.42s-2.94-8.83-10.51-13.82-17.32-3.43-17.32-3.43-3.72-3.25-7.8-3.39-6,1.47-6,1.47l6.06-12.17s5.35-4.5,17.58-1.26c12.53,3.32,20.49,10.79,22.8,19.71Z" style="fill:#37474f"></path><polygon points="230.75 84.33 231.47 81.96 267.42 65.12 266.7 67.49 230.75 84.33" style="fill:#455a64"></polygon><polygon points="230.75 84.33 231.47 81.96 267.42 65.12 266.7 67.49 230.75 84.33" style="fill:#fff;opacity:0.2"></polygon><polygon points="267.42 65.12 266.7 67.49 298.7 105.05 299.41 102.69 267.42 65.12" style="fill:#37474f"></polygon><path d="M308.31,120.84c-4.79.89-10-1.46-13-5.17A15.64,15.64,0,0,1,292,104.21c.2-2,.64-4,.92-6a20.41,20.41,0,0,0,.24-2.92,11.88,11.88,0,0,0-.59-4,9.83,9.83,0,0,0-3-4.55,11.52,11.52,0,0,0-5.64-2.21l-1.52-1.79c.85.1,1.69.22,2.5.37a12.44,12.44,0,0,1,5.83,2.5,11.07,11.07,0,0,1,3.18,4.59,14.78,14.78,0,0,1,.91,5.74c0,.42-.05.85-.1,1.27-.09.91-.25,1.81-.41,2.73s-.4,2.14-.55,3.21a15.7,15.7,0,0,0,.26,6.51,14,14,0,0,0,2.78,5.26,13.89,13.89,0,0,0,5.07,3.7,19.8,19.8,0,0,0,6.2,1.27C308.59,119.9,309,120.71,308.31,120.84Z" style="fill:#407BFF"></path><path d="M319.06,111a46.33,46.33,0,0,1-5.32,5c-3.72,3-5.93,3-5.58,4.26s4.46,1.09,8.82-.06a14.07,14.07,0,0,0,6.18-3.37.47.47,0,0,0,0-.6.39.39,0,0,0-.47-.12c.28-.27.48-.45.28-.78a.43.43,0,0,0-.63-.1,16.8,16.8,0,0,1-5.9,2.94,20.44,20.44,0,0,0,5.92-4.24.48.48,0,0,0,0-.6h0a.45.45,0,0,0-.68,0,20.33,20.33,0,0,1-7.95,5.08,23.09,23.09,0,0,0,7-5.16.52.52,0,0,0,0-.72h0a.48.48,0,0,0-.72.06,22,22,0,0,1-5.51,4.28c.17-.15,3.48-3.27,5.19-5.13a.45.45,0,0,0,0-.59l-.05-.06A.45.45,0,0,0,319.06,111Zm-5.25,8.89a21,21,0,0,0,8.19-3.24A13.51,13.51,0,0,1,313.81,119.91Z" style="fill:#407BFF"></path><path d="M307.06,119.58a1.56,1.56,0,1,0,2.15-.49A1.55,1.55,0,0,0,307.06,119.58Z" style="fill:#407BFF"></path><path d="M307.06,119.58a1.56,1.56,0,1,0,2.15-.49A1.55,1.55,0,0,0,307.06,119.58Z" style="opacity:0.2"></path><path d="M286.7,170.88c0,27.13,2.67,41.4,4.64,59.86,2.28,21.29,4.43,34.93,6.29,53.14,1.45,14.32,6.93,43.29,6.93,43.29s-2.41,12.57-24.88,22.93c-22,10.13-36.58,8.26-36.58,8.26s2.25-86.55,6.67-133.41c0,0,7.82-38.86,18-50.37S286.7,170.88,286.7,170.88Z" style="fill:#455a64"></path><path d="M284.34,229.09c2.59,5.72,6.22,12.85,8.88,17.93-.62-5-1.24-10.34-1.88-16.28-1.54-14.45-3.53-26.33-4.31-43.82l-11.92-.18C277.6,206.71,279.79,219,284.34,229.09Z" style="fill:#37474f"></path><g id="freepik--arm--inject-62"><g id="freepik--arm--inject-62"><path d="M351.67,260.75a5.48,5.48,0,0,1-3.31-1.12,9,9,0,0,1-1.06-1,.54.54,0,0,0-.21-.16.45.45,0,0,0-.3,0,5.74,5.74,0,0,1-4.39-.64l-5.2-2.64a14,14,0,0,1-2.77-1.69,4.69,4.69,0,0,1-1.67-2.7,2.46,2.46,0,0,1,.34-1.8,2.64,2.64,0,0,1,.92-.74,6.74,6.74,0,0,1,3.59-.5,18.58,18.58,0,0,1,9.73,3.68c1.06.79,2.05,1.66,3,2.51s1.15,2.08,1.53,3.13a12.18,12.18,0,0,0,.83,1.84c.21.35.77.73.65,1.19s-.45.46-.78.52A5,5,0,0,1,351.67,260.75Z" style="fill:#f28f8f"></path><path d="M335.44,257c-2.24-1.37-4.64-1.7-7.12-2.45-1.7-.51-3.28-1.25-5-1.75a19.54,19.54,0,0,1-5-1.75,8.82,8.82,0,0,1-3.34-3.46,31.81,31.81,0,0,0-3.18-4.79c-3.12-3.85-13.17-15.28-20.31-23.42-4.91-5.6-6.29-8-7.49-12-5.83-19.26-10.11-31.53-10.11-31.53-3.54-10-1.08-24,4.93-28.6,12.27,3.89,13.13,6.06,18.46,24.23,3,10.26,4.1,16.1,8.8,32.74,10.91,18,19.16,33.43,20.44,34.61,2,1.86,7.66,3,12.39,5,2.48,1,4.93,2,7.49,2.86a5.95,5.95,0,0,1,3.8,2.59l3.68,4.7c1,1.34,2.41,2.33,3.53,3.61a1.48,1.48,0,0,1,.34.56c.55,2.12-3.45,1.42-4.33,1.07a15.39,15.39,0,0,1-3.06-1.85,28.18,28.18,0,0,1-3.9-3.5,7.79,7.79,0,0,0-4.67-2.56l-3.95-.53c-.23,0-.57,0-.54.27a.39.39,0,0,0,.13.21,49,49,0,0,0,6,5.05,2.14,2.14,0,0,1,.85.89c.3.77-.4,1.59-1.15,2C340.4,260.5,337.72,258.4,335.44,257Z" style="fill:#ffa8a7"></path></g><path d="M277.09,146.65c6,1.4,11.49,2.79,14.29,7.17s4.57,8.46,7,17.18,8.43,32.37,8.43,32.37l20.76,36.17S324.8,256.9,301.2,256c-10.15-21-17.79-38.71-19.87-45s-9.18-36.8-9.18-36.8S268.17,159.82,277.09,146.65Z" style="fill:#455a64"></path></g><path d="M249.77,225c4.35-51.75,13.12-63.43,16.16-70.53a85.29,85.29,0,0,0,3.38-10.22l.42-2.26s16.11,5.61,20.51,8.88,6.48,10,8.2,15.57c-1.66,4.21-8,7.1-11.81,9.27C274.49,182.62,262.87,186.17,249.77,225Z" style="fill:#37474f"></path><path d="M214.47,217.14C211.32,262.22,205.32,349,205.32,349s-17.9-5.55-22.12-15.29c6.72-59,16.27-119.85,35.36-174.88C218.56,158.8,215.76,195.05,214.47,217.14Z" style="fill:#455a64"></path><path d="M249.68,138.42l-.46,2.46S231.93,151.75,225.33,169c-6.71,17.49-10.86,48.19-10.86,48.19A264.13,264.13,0,0,1,212.41,172c.65-17.67,1.61-22,3.18-28.8a86.23,86.23,0,0,1,5.54-17s7.63,4.9,13,8A31.19,31.19,0,0,0,249.68,138.42Z" style="fill:#37474f"></path><path d="M206.94,240.9a3.85,3.85,0,0,0-.07-.49c-.08-.33-.18-.65-.29-1a7.14,7.14,0,0,0-.59-1.25,1.24,1.24,0,0,0,.3-.17.89.89,0,0,0,.33-.59.85.85,0,0,0-.16-.53,1.19,1.19,0,0,0-.45-.41h0c.25-1.88.51-3.77.76-5.66.13-1,.26-2,.38-3a6.26,6.26,0,0,0-.16-3.07c-.08-.2-.57-.52-.62-.13-.46,3.86-1,7.71-1.5,11.57l-.12,0a1.21,1.21,0,0,0-.77.66,1,1,0,0,0-.07.58.92.92,0,0,0,.24.43l-.16.32a5.08,5.08,0,0,0-.34.92,15.9,15.9,0,0,0-.32,1.83c0,.08.08.21.13.09.17-.45.38-.89.58-1.33l-.12.86a13.37,13.37,0,0,0-.17,1.4c0,.46,0,.94,0,1.4,0,.09.13.19.16.06.09-.31.16-.63.23-.94l0,.75c0,.12.14.27.2.09.14-.42.28-.84.4-1.27,0-.16.07-.32.1-.48,0,.44-.06.89-.07,1.33a9,9,0,0,0,.09,1.56c0,.12.18.25.24.09a7.88,7.88,0,0,0,.2-.87,6.16,6.16,0,0,0,.11-.75c.05-.48.07-1,.09-1.46a1.55,1.55,0,0,0,.07.23c0,.07.16.17.24.09a1.15,1.15,0,0,0,.17-.55,2,2,0,0,0,0-.6c0-.4,0-.8,0-1.2,0-.1,0-.2,0-.3l.16.45c.08.28.15.56.22.85a2.85,2.85,0,0,0,.11.39,1.91,1.91,0,0,0,.17.51c0,.09.25.18.3,0A.94.94,0,0,0,206.94,240.9Z" style="fill:#fff"></path><path d="M249.38,255.81c0-.16,0-.32-.09-.49s-.21-.64-.33-.95a6.87,6.87,0,0,0-.65-1.23,1,1,0,0,0,.29-.18.79.79,0,0,0,.12-1.12,1.23,1.23,0,0,0-.46-.39h0c.16-1.9.33-3.79.5-5.69.09-1,.17-2,.25-3a6.22,6.22,0,0,0-.3-3.06c-.08-.2-.59-.5-.62-.1-.29,3.87-.64,7.74-1,11.61l-.12,0a1.19,1.19,0,0,0-.73.69,1,1,0,0,0-.05.59.93.93,0,0,0,.26.42,2.41,2.41,0,0,0-.15.33,5.93,5.93,0,0,0-.3.93,16.12,16.12,0,0,0-.23,1.85c0,.07.08.2.13.07.15-.46.34-.9.52-1.35,0,.29,0,.58-.08.87a13.2,13.2,0,0,0-.11,1.4c0,.46.06.94.11,1.4,0,.09.14.19.17.05.07-.31.12-.63.18-1,0,.25,0,.5,0,.75s.15.27.2.09c.12-.43.24-.86.34-1.29a3.85,3.85,0,0,0,.08-.49c0,.45,0,.89,0,1.34a9.93,9.93,0,0,0,.16,1.55c0,.11.19.24.25.08a8.79,8.79,0,0,0,.15-.87,6.53,6.53,0,0,0,.08-.76c0-.49,0-1,0-1.46a1,1,0,0,0,.08.22c0,.07.17.16.24.08a1.29,1.29,0,0,0,.15-.56,3,3,0,0,0,0-.6l-.09-1.19,0-.3.18.44c.1.28.18.56.26.84,0,.13.08.25.12.38a2.18,2.18,0,0,0,.2.5c.06.1.25.18.3,0A.94.94,0,0,0,249.38,255.81Z" style="fill:#fff"></path><path d="M271.28,133.78,282.77,147s-6.58-.83-12.69,12.61-10.68,45-12.86,71.52l-8.87,10.14-6.76-11.79s5.23-48.56,13.13-67.91a73.8,73.8,0,0,1,15.87-24.14Z" style="fill:#407BFF"></path><path d="M271.28,133.78,282.77,147s-6.58-.83-12.69,12.61-10.68,45-12.86,71.52l-8.87,10.14-6.76-11.79s5.23-48.56,13.13-67.91a73.8,73.8,0,0,1,15.87-24.14Z" style="fill:#fff;opacity:0.6000000000000001"></path><path d="M280.42,144.28a21.87,21.87,0,0,0-7.31,5.59c-7.87,8.79-10.68,21.71-13.79,39-3.06,17-4.81,38.15-5,40.18l-5.24,6.23-4-6.67c.34-2.62,4.53-34.55,7.43-49.1a79.17,79.17,0,0,1,14.63-33.36c1.2-1.61,2.18-2.89,3-3.94,2.18-2.83,3.13-4.06,3.42-5.78l-.87-1c-.07,2-.82,2.93-3.32,6.18-.82,1-1.81,2.34-3,4a80.11,80.11,0,0,0-14.81,33.75c-3,15.13-7.41,49-7.45,49.33l0,.17L249,237l6.32-7.52v-.15c0-.23,1.79-22.51,5-40.24,3.08-17.14,5.86-29.94,13.56-38.54a20.33,20.33,0,0,1,7.28-5.43Z" style="fill:#fff"></path><path d="M245,133.1l-4.86,2.27s-11.66,3.74-22.66,23c-13.13,23-16.11,55.1-16.11,55.1l5.15,13.39,10.22-9.7s4.56-32.29,10.26-48.94,22.21-27.36,22.21-27.36l1.09-5.78.11-.57A23.15,23.15,0,0,1,245,133.1Z" style="fill:#407BFF"></path><path d="M245,133.1l-4.86,2.27s-11.66,3.74-22.66,23c-13.13,23-16.11,55.1-16.11,55.1l5.15,13.39,10.22-9.7s4.56-32.29,10.26-48.94,22.21-27.36,22.21-27.36l1.09-5.78.11-.57A23.15,23.15,0,0,1,245,133.1Z" style="fill:#fff;opacity:0.6000000000000001"></path><path d="M249.52,139.28l.23-1.2c-8.92,4.3-20.41,15-26.77,33.25-5.86,16.78-8.68,40.6-8.94,42.91l-6,5.66L205,211.6c2.46-16.29,5.69-33.31,12.51-47.49,6.09-12.64,17.81-26.17,31.14-29.91-.6-.13-1.19-.29-1.79-.47-13,4.39-24.28,17.59-30.23,30-6.9,14.32-10.14,31.48-12.62,47.89l0,.13,3.73,9.92L215,214.7l0-.18c0-.25,2.82-25.41,8.91-42.87S240.89,143.68,249.52,139.28Z" style="fill:#fff"></path></g></g></g><g id="freepik--Sparkles--inject-62"><g id="freepik--sparkles--inject-62"><path d="M168.66,232.94c0,3,.07,5.84,4.38,6.51-4.55-.06-4.2,2.81-4.43,6.4-.12-3.59-.43-6.17-4-6.34C168.3,238.91,168.2,237.21,168.66,232.94Z" style="fill:#455a64"></path><path d="M149.43,143.73c-.06,5.92.15,11.61,8.69,12.93-9-.12-8.34,5.57-8.78,12.69-.24-7.12-.87-12.23-7.9-12.57C148.71,155.58,148.52,152.21,149.43,143.73Z" style="fill:#455a64"></path><path d="M146.47,244.64c-.07,6,.15,11.67,8.74,13-9.08-.12-8.39,5.6-8.84,12.76-.24-7.16-.87-12.3-7.94-12.64C145.74,256.56,145.55,253.17,146.47,244.64Z" style="fill:#407BFF"></path><path d="M359.25,166c-.05,4.32.11,8.48,6.35,9.45-6.59-.09-6.1,4.06-6.42,9.27-.17-5.21-.63-8.94-5.77-9.19C358.72,174.62,358.58,172.15,359.25,166Z" style="fill:#455a64"></path><path d="M325.82,140.66c-.06,5.84.15,11.46,8.58,12.77-8.91-.12-8.24,5.5-8.67,12.53-.24-7-.86-12.08-7.8-12.41C325.11,152.36,324.92,149,325.82,140.66Z" style="fill:#407BFF"></path><path d="M321.62,267.48c.25,6.23.69,9.3,6.57,9.78-5.88.29-6.27,3.45-6.57,9.51-.22-6-.43-9.11-6-9.51C321.19,276.78,321.26,273.61,321.62,267.48Z" style="fill:#407BFF"></path><path d="M128.62,171.35c-.05,4.38.11,9.13,6.44,10.11-6.69-.09-6.18,3.6-6.51,8.87-.18-5.27-.64-9.06-5.85-9.31C128.08,180.13,127.94,177.63,128.62,171.35Z" style="fill:#ebebeb"></path><path d="M330,183.85c.27,5.86.27,8.42,5.95,8.85-5.68.26-5.65,3.75-5.95,8.6-.16-4.85-.39-8.15-5.41-8.6C329.53,192.38,329.69,189.77,330,183.85Z" style="fill:#ebebeb"></path></g></g><g id="freepik--speech-bubble-2--inject-62"><g id="freepik--speech-bubble--inject-62"><g id="freepik--speech-bubble--inject-62"><path d="M412.29,280.36l-1-3.15c-.54-2.53,9.82,3.45,10.36,6l-3.34,9a1.44,1.44,0,0,1-.56.65c-.73.45-3.43,2-3.67,2.12a1.45,1.45,0,0,1-2.13-.79l-4.32-14.83C407.35,278.08,409.74,278.9,412.29,280.36Z" style="fill:#407BFF"></path><path d="M412.29,280.36l-1-3.15c-.54-2.53,9.82,3.45,10.36,6l-3.34,9a1.44,1.44,0,0,1-.56.65c-.73.45-3.43,2-3.67,2.12a1.45,1.45,0,0,1-2.13-.79l-4.32-14.83C407.35,278.08,409.74,278.9,412.29,280.36Z" style="fill:#fff;opacity:0.2"></path><path d="M398.21,220l39.38,22.72a2.94,2.94,0,0,1,1.33,2.3v46.66a2.89,2.89,0,0,1-1.34,2.29l-2.43,1.38a3,3,0,0,1-2.67,0L393.1,272.59a2.92,2.92,0,0,1-1.34-2.3V223.63a2.92,2.92,0,0,1,1.34-2.3l2.44-1.37A3,3,0,0,1,398.21,220Z" style="fill:#407BFF"></path><path d="M398.21,220l39.38,22.72a2.94,2.94,0,0,1,1.33,2.3v46.66a2.89,2.89,0,0,1-1.34,2.29l-2.43,1.38a3,3,0,0,1-2.67,0L393.1,272.59a2.92,2.92,0,0,1-1.34-2.3V223.63a2.92,2.92,0,0,1,1.34-2.3l2.44-1.37A3,3,0,0,1,398.21,220Z" style="fill:#fff;opacity:0.2"></path><path d="M393.1,222.86l39.38,22.71a3,3,0,0,1,1.33,2.31v46.66c0,.85-.6,1.19-1.33.77l-15.07-8.69-2.77,7.67a1.45,1.45,0,0,1-2.7-.13l-3.68-12.82-15.16-8.75a2.91,2.91,0,0,1-1.33-2.3V223.63C391.77,222.78,392.36,222.43,393.1,222.86Z" style="fill:#407BFF"></path><path d="M393.1,222.86l39.38,22.71a3,3,0,0,1,1.33,2.31v46.66c0,.85-.6,1.19-1.33.77l-15.07-8.69-2.77,7.67a1.45,1.45,0,0,1-2.7-.13l-3.68-12.82-15.16-8.75a2.91,2.91,0,0,1-1.33-2.3V223.63C391.77,222.78,392.36,222.43,393.1,222.86Z" style="fill:#fff;opacity:0.4"></path><path d="M391.78,223.38c.11-.67.65-.91,1.32-.52l39.37,22.71a2.75,2.75,0,0,1,.94,1l5.09-2.94a2.77,2.77,0,0,0-.91-.95L398.21,220a3,3,0,0,0-2.67,0l-2.44,1.38A3,3,0,0,0,391.78,223.38Z" style="fill:#fff;opacity:0.7000000000000001"></path></g><path d="M411.38,241.78l-2.65,9.34-8.57-5c-1.05-.6-1.49.94-.64,2.25l6.94,10.72-2.65,9.34c-.33,1.14.82,2.91,1.67,2.58l6.93-2.72,6.93,10.73c.85,1.31,2,.86,1.67-.66L418.36,266l6.94-2.71c.85-.33.41-2.37-.64-3l-8.57-4.95L413.44,243C413.12,241.46,411.7,240.64,411.38,241.78Z" style="fill:#fff"></path></g></g><g id="freepik--speech-bubble-1--inject-62"><g id="freepik--speech-bubble--inject-62"><g id="freepik--speech-bubble--inject-62"><path d="M86.51,280.36l1-3.15c.54-2.53-9.82,3.45-10.36,6l3.34,9a1.39,1.39,0,0,0,.56.65c.73.45,3.43,2,3.66,2.12a1.45,1.45,0,0,0,2.14-.79l4.32-14.83C91.45,278.08,89.06,278.9,86.51,280.36Z" style="fill:#407BFF"></path><path d="M86.51,280.36l1-3.15c.54-2.53-9.82,3.45-10.36,6l3.34,9a1.39,1.39,0,0,0,.56.65c.73.45,3.43,2,3.66,2.12a1.45,1.45,0,0,0,2.14-.79l4.32-14.83C91.45,278.08,89.06,278.9,86.51,280.36Z" style="fill:#fff;opacity:0.2"></path><path d="M100.59,220,61.21,242.69a2.94,2.94,0,0,0-1.33,2.3v46.66a2.89,2.89,0,0,0,1.34,2.29l2.43,1.38a3,3,0,0,0,2.67,0l39.38-22.72a2.91,2.91,0,0,0,1.33-2.3V223.63a2.94,2.94,0,0,0-1.33-2.3L103.26,220A3,3,0,0,0,100.59,220Z" style="fill:#407BFF"></path><path d="M100.59,220,61.21,242.69a2.94,2.94,0,0,0-1.33,2.3v46.66a2.89,2.89,0,0,0,1.34,2.29l2.43,1.38a3,3,0,0,0,2.67,0l39.38-22.72a2.91,2.91,0,0,0,1.33-2.3V223.63a2.94,2.94,0,0,0-1.33-2.3L103.26,220A3,3,0,0,0,100.59,220Z" style="fill:#fff;opacity:0.2"></path><path d="M105.7,222.86,66.32,245.57A3,3,0,0,0,65,247.88v46.66c0,.85.6,1.19,1.33.77l15.07-8.69,2.77,7.67a1.45,1.45,0,0,0,2.7-.13l3.68-12.82,15.16-8.75a2.91,2.91,0,0,0,1.33-2.3V223.63C107,222.78,106.44,222.43,105.7,222.86Z" style="fill:#407BFF"></path><path d="M105.7,222.86,66.32,245.57A3,3,0,0,0,65,247.88v46.66c0,.85.6,1.19,1.33.77l15.07-8.69,2.77,7.67a1.45,1.45,0,0,0,2.7-.13l3.68-12.82,15.16-8.75a2.91,2.91,0,0,0,1.33-2.3V223.63C107,222.78,106.44,222.43,105.7,222.86Z" style="fill:#fff;opacity:0.4"></path><path d="M107,223.38c-.11-.67-.66-.91-1.32-.52L66.33,245.57a2.67,2.67,0,0,0-.94,1l-5.09-2.94a2.77,2.77,0,0,1,.91-.95L100.59,220a3,3,0,0,1,2.67,0l2.43,1.38A3,3,0,0,1,107,223.38Z" style="fill:#fff;opacity:0.7000000000000001"></path></g><path d="M82.57,248.25c.3-.17.53-.2.68-.07a1.52,1.52,0,0,1,.39.73l6.93,19.81a.94.94,0,0,1,0,.25,1.82,1.82,0,0,1-.22.85,1.42,1.42,0,0,1-.54.61l-2,1.18c-.38.21-.64.26-.8.13a1.11,1.11,0,0,1-.31-.44l-1.21-3.48L76.55,273l-1.22,4.89a3.16,3.16,0,0,1-.31.8,1.91,1.91,0,0,1-.79.78l-2,1.17a.47.47,0,0,1-.54,0,.69.69,0,0,1-.22-.59,2.46,2.46,0,0,1,0-.28l6.93-27.81a5.24,5.24,0,0,1,.39-1.18,1.74,1.74,0,0,1,.68-.72Zm1.55,15.64L81,255l-3.1,12.53Z" style="fill:#fff"></path><path d="M95.65,251.71v5.08a1.35,1.35,0,0,1-.17.62,1,1,0,0,1-.4.46l-1.59.92a.33.33,0,0,1-.39,0,.51.51,0,0,1-.17-.43v-5.08l-3.74,2.16a.33.33,0,0,1-.4,0,.51.51,0,0,1-.17-.43v-1.84a1.39,1.39,0,0,1,.17-.63,1,1,0,0,1,.4-.45l3.74-2.16v-5.05a1.35,1.35,0,0,1,.17-.62,1.07,1.07,0,0,1,.39-.46l1.59-.91a.35.35,0,0,1,.4,0,.51.51,0,0,1,.17.43v5.05l3.72-2.15a.35.35,0,0,1,.4,0,.53.53,0,0,1,.16.44v1.84a1.33,1.33,0,0,1-.16.62,1.09,1.09,0,0,1-.4.46Z" style="fill:#fff"></path></g></g></svg>
